<svg width="178" height="178" viewBox="0 0 178 178" fill="none" xmlns="http://www.w3.org/2000/svg">
<path d="M113.801 91.5554C107.22 98.1368 98.2936 101.834 88.986 101.834C79.6784 101.834 70.752 98.1368 64.1705 91.5554C57.589 84.9739 53.8916 76.0475 53.8916 66.7399C53.8916 57.4323 57.589 48.5059 64.1705 41.9244C70.752 35.3429 79.6784 31.6455 88.986 31.6455C98.2936 31.6455 107.22 35.3429 113.801 41.9244C120.383 48.5059 124.08 57.4323 124.08 66.7399C124.08 76.0475 120.383 84.9739 113.801 91.5554ZM88.986 93.9357C92.5574 93.9357 96.0938 93.2322 99.3934 91.8655C102.693 90.4988 105.691 88.4956 108.216 85.9702C110.742 83.4449 112.745 80.4468 114.112 77.1473C115.478 73.8477 116.182 70.3113 116.182 66.7399C116.182 63.1685 115.478 59.6321 114.112 56.3325C112.745 53.033 110.742 50.0349 108.216 47.5096C105.691 44.9842 102.693 42.981 99.3934 41.6143C96.0938 40.2475 92.5574 39.5441 88.986 39.5441C81.7732 39.5441 74.8559 42.4094 69.7557 47.5096C64.6555 52.6098 61.7902 59.5271 61.7902 66.7399C61.7902 73.9527 64.6555 80.87 69.7557 85.9702C74.8559 91.0704 81.7732 93.9357 88.986 93.9357Z" fill="black" stroke="white"/>
<path d="M132.101 157.082L132.164 157.042L137.928 146.017L138.428 146.02C138.428 146.019 138.428 146.019 138.428 146.018C138.443 143.666 137.607 141.389 136.073 139.606C134.54 137.822 132.413 136.654 130.085 136.317L130.081 136.316C99.5454 132.088 78.5281 131.704 48.0203 136.161C43.1633 136.87 39.5442 141.103 39.5437 146.136C39.5384 148.343 40.2609 150.491 41.5993 152.247L41.6005 152.248C42.6973 153.675 43.7849 155.057 44.8545 156.394L44.9044 156.456L44.9713 156.5C58.0556 165.053 73.354 169.597 88.9859 169.573C104.253 169.598 119.211 165.264 132.101 157.082ZM146.262 144.493L146.356 145.592L147.12 144.798C161.552 129.805 169.602 109.796 169.573 88.9853C169.573 44.479 133.492 8.39859 88.9859 8.39859C44.4796 8.39859 8.39896 44.479 8.39859 88.9853C8.37014 109.8 16.4231 129.813 30.8605 144.807L31.621 145.596L31.7187 144.504C32.4464 136.375 38.5739 129.556 46.8788 128.345L46.8789 128.345C78.2162 123.766 99.9877 124.178 131.163 128.493L131.232 127.997L131.164 128.493C139.419 129.634 145.569 136.39 146.262 144.493ZM177.472 88.9859C177.472 137.857 137.857 177.472 88.9859 177.472C40.1152 177.472 0.5 137.857 0.5 88.9859C0.5 40.1152 40.1152 0.5 88.9859 0.5C137.857 0.5 177.472 40.1152 177.472 88.9859Z" fill="black" stroke="white"/>
</svg>
