<svg width="324" height="77" viewBox="0 0 324 77" fill="none" xmlns="http://www.w3.org/2000/svg">
<rect width="322.56" height="77" rx="38.5" fill="#EB7125"/>
<path d="M143.465 49.0156V52.1406H111.434V49.0156H125.535V42.8828H115.34V31.75H135.887V26.8281H115.262V23.7812H139.559V34.7188H119.012V39.8359H140.379V42.8828H129.207V49.0156H143.465ZM173.738 24.875V28.625C173.738 33.1562 173.738 38.0781 172.449 45.5391L168.66 45.1875C170.066 38.1953 170.066 33.0391 170.066 28.625V27.9219H149.441V24.875H173.738ZM177.918 48.2734V51.3594H146.004V48.2734H177.918ZM209.598 21.3594V46.7891H205.887V21.3594H209.598ZM210.652 52.5703V55.5781H186.707V44.2109H190.457V52.5703H210.652ZM190.613 23.7031C195.887 23.7031 199.91 27.2969 199.91 32.375C199.91 37.5312 195.887 41.0859 190.613 41.0859C185.34 41.0859 181.277 37.5312 181.277 32.375C181.277 27.2969 185.34 23.7031 190.613 23.7031ZM190.613 26.9453C187.332 26.9453 184.91 29.1719 184.91 32.375C184.91 35.6562 187.332 37.8438 190.613 37.8438C193.816 37.8438 196.277 35.6562 196.277 32.375C196.277 29.1719 193.816 26.9453 190.613 26.9453Z" fill="white"/>
</svg>
