<svg width="552" height="90" viewBox="0 0 552 90" fill="none" xmlns="http://www.w3.org/2000/svg">
<rect width="552" height="90" rx="40" fill="#EEEEEE"/>
<path d="M221.07 34.2188V36.4336C221.07 38.7441 221.07 41.2734 220.414 44.7734H223.832V47.2344H214.016V57.4609H210.953V47.2344H201.301V44.7734H217.324C218.008 41.4102 218.035 38.8945 218.035 36.6797H203.953V34.2188H221.07ZM245.324 33.7539V35.3945C245.324 37.0215 245.324 39.0449 244.832 41.6289H248.086V44.0352H225.5V41.6289H241.77C242.207 39.3867 242.275 37.623 242.289 36.1602H228.289V33.7539H245.324ZM245.297 46.0039V52.7031H231.16V54.8086H245.926V57.1875H228.125V50.3789H242.262V48.3828H228.098V46.0039H245.297ZM272.285 52.0469V54.5625H249.699V52.0469H259.434V48.0273H252.379V39.9336H266.598V36.8711H252.324V34.4102H269.605V42.3398H255.414V45.5391H270.18V48.0273H262.441V52.0469H272.285ZM299.902 32.7148V42.3672H303.566V44.9102H299.902V57.3789H296.867V32.7148H299.902ZM293.367 35.2852C293.367 42.5586 290.359 48.9297 282.129 52.9766L280.406 50.625C286.422 47.6309 289.676 43.4199 290.305 37.8008H281.746V35.2852H293.367ZM325.332 32.7148V45.9766H322.27V32.7148H325.332ZM311.988 47.125V49.668H322.297V47.125H325.332V57.1328H308.98V47.125H311.988ZM311.988 54.6719H322.297V52.0469H311.988V54.6719ZM311.852 33.8086C315.652 33.7812 318.496 36.1602 318.496 39.6055C318.496 42.9688 315.652 45.3477 311.852 45.3477C308.023 45.3477 305.18 42.9688 305.18 39.6055C305.18 36.1602 308.023 33.7812 311.852 33.8086ZM311.852 36.3516C309.691 36.3516 308.133 37.6094 308.16 39.6055C308.133 41.5742 309.691 42.832 311.852 42.8594C313.984 42.832 315.516 41.5742 315.516 39.6055C315.516 37.6094 313.984 36.3516 311.852 36.3516ZM348.301 32.7148V42.5586H352.102V45.0742H348.301V57.4336H345.293V32.7148H348.301ZM343.379 36.5156V38.9492H328.805V36.5156H334.656V33.0703H337.691V36.5156H343.379ZM336.188 40.5625C339.742 40.5625 342.395 42.9688 342.395 46.3867C342.395 49.8047 339.742 52.1836 336.188 52.1836C332.578 52.1836 329.926 49.8047 329.953 46.3867C329.926 42.9688 332.578 40.5625 336.188 40.5625ZM336.188 43.0508C334.246 43.0508 332.852 44.3633 332.852 46.3867C332.852 48.4102 334.246 49.6953 336.188 49.668C338.074 49.6953 339.469 48.4102 339.496 46.3867C339.469 44.3633 338.074 43.0508 336.188 43.0508ZM373.785 32.7148V57.4336H370.723V32.7148H373.785ZM366.402 35.3398C366.402 42.6953 363.559 48.957 354.891 53.0586L353.305 50.625C359.771 47.5488 362.779 43.3652 363.312 37.7461H354.562V35.3398H366.402Z" fill="#424242"/>
<g clip-path="url(#clip0_2_1160)">
<path d="M52.8893 28.2168C49.1924 29.4993 46.0042 31.9335 43.793 35.1618C41.5819 38.3902 40.4642 42.2425 40.6043 46.153C40.7443 50.0635 42.1347 53.8261 44.5712 56.888C47.0076 59.9499 50.3618 62.1497 54.1409 63.1645C57.2048 63.955 60.4148 63.9898 63.495 63.2656C66.2854 62.6389 68.8651 61.2982 70.9817 59.3749C73.1846 57.312 74.7836 54.6877 75.6067 51.7841C76.5011 48.6265 76.6603 45.306 76.0721 42.0774H58.8671V49.2143H68.8311C68.6319 50.3526 68.2052 51.439 67.5764 52.4086C66.9476 53.3781 66.1297 54.2108 65.1716 54.8568C63.955 55.662 62.5834 56.2035 61.1449 56.4467C59.7023 56.715 58.2226 56.715 56.7801 56.4467C55.3179 56.1447 53.9347 55.5412 52.7187 54.6747C50.7651 53.2918 49.2982 51.3271 48.5273 49.0611C47.7437 46.7526 47.7437 44.25 48.5273 41.9415C49.0761 40.3234 49.9832 38.8501 51.1809 37.6316C52.5516 36.2116 54.287 35.1965 56.1966 34.6978C58.1062 34.1991 60.1163 34.2361 62.0063 34.8046C63.4828 35.2576 64.833 36.0495 65.9491 37.1171C67.0726 35.9993 68.1942 34.8787 69.3138 33.7553C69.8919 33.1511 70.5221 32.5759 71.0916 31.9573C69.3876 30.3718 67.3877 29.1381 65.2062 28.3267C61.2337 26.8842 56.887 26.8454 52.8893 28.2168Z" fill="white"/>
<path d="M52.8893 28.2168C56.8866 26.8445 61.2333 26.8822 65.2062 28.3237C67.388 29.1406 69.3871 30.3803 71.0886 31.9717C70.5105 32.5903 69.9006 33.1684 69.3109 33.7696C68.1894 34.8893 67.0688 36.0051 65.9491 37.117C64.833 36.0494 63.4828 35.2575 62.0063 34.8045C60.1169 34.234 58.1069 34.1949 56.1968 34.6916C54.2867 35.1882 52.5502 36.2014 51.178 37.62C49.9802 38.8385 49.0731 40.3118 48.5244 41.9299L42.5322 37.2904C44.677 33.0371 48.3907 29.7835 52.8893 28.2168Z" fill="#E33629"/>
<path d="M40.9424 41.8866C41.2642 40.2903 41.7989 38.7445 42.5322 37.2905L48.5245 41.9415C47.7408 44.25 47.7408 46.7526 48.5245 49.0612C46.528 50.6028 44.5306 52.1522 42.5322 53.7093C40.6971 50.0564 40.1374 45.8945 40.9424 41.8866Z" fill="#F8BD00"/>
<path d="M58.8671 42.0747H76.0721C76.6603 45.3034 76.5011 48.6239 75.6067 51.7814C74.7836 54.685 73.1846 57.3093 70.9817 59.3722C69.0479 57.8633 67.1054 56.366 65.1716 54.8571C66.1303 54.2104 66.9487 53.3767 67.5775 52.4062C68.2063 51.4356 68.6327 50.3481 68.8311 49.2088H58.8671C58.8642 46.8327 58.8671 44.4537 58.8671 42.0747Z" fill="#587DBD"/>
<path d="M42.5293 53.7092C44.5277 52.1675 46.5251 50.6181 48.5216 49.061C49.294 51.3279 50.763 53.2926 52.7188 54.6746C53.9384 55.5371 55.3246 56.1357 56.7888 56.4321C58.2313 56.7004 59.711 56.7004 61.1536 56.4321C62.592 56.189 63.9637 55.6474 65.1802 54.8423C67.1141 56.3512 69.0566 57.8485 70.9904 59.3574C68.8741 61.2818 66.2943 62.6235 63.5037 63.2511C60.4234 63.9752 57.2135 63.9405 54.1496 63.1499C51.7264 62.5029 49.463 61.3624 47.5012 59.7997C45.4249 58.151 43.729 56.0735 42.5293 53.7092Z" fill="#319F43"/>
</g>
<defs>
<clipPath id="clip0_2_1160">
<rect width="37" height="37" fill="white" transform="translate(40 27)"/>
</clipPath>
</defs>
</svg>
