<svg width="552" height="90" viewBox="0 0 552 90" fill="none" xmlns="http://www.w3.org/2000/svg">
<rect width="552" height="90" rx="40" fill="#00C73C"/>
<path d="M166.254 35.1758V48.7656C168.674 48.7383 170.902 48.5605 173.418 48.0273L173.855 50.5977C170.711 51.2812 168.004 51.3906 164.887 51.3906H163.219V35.1758H166.254ZM183.508 32.7148V57.4336H180.609V32.7148H183.508ZM178.203 33.2344V56.2578H175.332V43.1602H170.164V40.6992H175.332V33.2344H178.203ZM206.941 32.7148V57.4609H203.879V32.7148H206.941ZM193.625 34.5195C197.344 34.5195 200.051 37.9102 200.078 43.2422C200.051 48.6289 197.344 51.9922 193.625 51.9922C189.879 51.9922 187.172 48.6289 187.172 43.2422C187.172 37.9102 189.879 34.5195 193.625 34.5195ZM193.625 37.2539C191.52 37.2539 190.098 39.4688 190.098 43.2422C190.098 47.043 191.52 49.2578 193.625 49.2578C195.703 49.2578 197.125 47.043 197.125 43.2422C197.125 39.4688 195.703 37.2539 193.625 37.2539ZM231.305 32.7148V57.4609H228.297V44.0625H223.266V51.4727H211.508V34.6289H214.57V40.7812H220.285V34.6289H223.266V41.5742H228.297V32.7148H231.305ZM214.57 49.0391H220.285V43.1602H214.57V49.0391ZM257.363 52.0469V54.5625H234.777V52.0469H244.512V48.0273H237.457V39.9336H251.676V36.8711H237.402V34.4102H254.684V42.3398H240.492V45.5391H255.258V48.0273H247.52V52.0469H257.363ZM285.117 32.7148V39.8242H288.562V42.3672H285.117V50.543H282.027V32.7148H285.117ZM278.391 34.6016C278.391 41.1641 274.125 45.8398 266.797 47.9727L265.539 45.5664C271.186 43.9395 274.549 40.8633 275.082 37.0898H266.578V34.6016H278.391ZM286.047 54.4805V56.9414H269.23V48.7109H272.32V54.4805H286.047ZM310.52 32.7148V50.9805H307.484V44.5273H303.984V42.0117H307.484V39.6602H303.984V37.1992H307.484V32.7148H310.52ZM303.629 34.5742V37.0078H301.441V44.8828C302.371 44.8281 303.273 44.7598 304.148 44.6641L304.285 46.8789C299.609 47.6445 294.113 47.7266 290.176 47.7266L289.848 45.2109C290.709 45.2109 291.652 45.2109 292.637 45.1836V37.0078H290.477V34.5742H303.629ZM311.148 54.4805V56.9414H294.277V49.5586H297.34V54.4805H311.148ZM295.59 45.1562C296.547 45.1289 297.531 45.1016 298.516 45.0469V37.0078H295.59V45.1562ZM340.023 32.7148V42.3672H343.688V44.9102H340.023V57.3789H336.988V32.7148H340.023ZM333.488 35.2852C333.488 42.5586 330.48 48.9297 322.25 52.9766L320.527 50.625C326.543 47.6309 329.797 43.4199 330.426 37.8008H321.867V35.2852H333.488ZM365.453 32.7148V45.9766H362.391V32.7148H365.453ZM352.109 47.125V49.668H362.418V47.125H365.453V57.1328H349.102V47.125H352.109ZM352.109 54.6719H362.418V52.0469H352.109V54.6719ZM351.973 33.8086C355.773 33.7812 358.617 36.1602 358.617 39.6055C358.617 42.9688 355.773 45.3477 351.973 45.3477C348.145 45.3477 345.301 42.9688 345.301 39.6055C345.301 36.1602 348.145 33.7812 351.973 33.8086ZM351.973 36.3516C349.812 36.3516 348.254 37.6094 348.281 39.6055C348.254 41.5742 349.812 42.832 351.973 42.8594C354.105 42.832 355.637 41.5742 355.637 39.6055C355.637 37.6094 354.105 36.3516 351.973 36.3516ZM388.422 32.7148V42.5586H392.223V45.0742H388.422V57.4336H385.414V32.7148H388.422ZM383.5 36.5156V38.9492H368.926V36.5156H374.777V33.0703H377.812V36.5156H383.5ZM376.309 40.5625C379.863 40.5625 382.516 42.9688 382.516 46.3867C382.516 49.8047 379.863 52.1836 376.309 52.1836C372.699 52.1836 370.047 49.8047 370.074 46.3867C370.047 42.9688 372.699 40.5625 376.309 40.5625ZM376.309 43.0508C374.367 43.0508 372.973 44.3633 372.973 46.3867C372.973 48.4102 374.367 49.6953 376.309 49.668C378.195 49.6953 379.59 48.4102 379.617 46.3867C379.59 44.3633 378.195 43.0508 376.309 43.0508ZM413.906 32.7148V57.4336H410.844V32.7148H413.906ZM406.523 35.3398C406.523 42.6953 403.68 48.957 395.012 53.0586L393.426 50.625C399.893 47.5488 402.9 43.3652 403.434 37.7461H394.684V35.3398H406.523Z" fill="white"/>
<g clip-path="url(#clip0_2_1150)">
<path d="M68.0534 46.1971L55.4493 28H45V62H55.9452V43.8043L68.5507 62H79V28H68.0534V46.1971Z" fill="white"/>
</g>
<defs>
<clipPath id="clip0_2_1150">
<rect width="34" height="34" fill="white" transform="translate(45 28)"/>
</clipPath>
</defs>
</svg>
