<svg width="552" height="90" viewBox="0 0 552 90" fill="none" xmlns="http://www.w3.org/2000/svg">
<rect width="552" height="90" rx="40" fill="#FFD740"/>
<path d="M175.031 35.1484C175.031 42.6133 172.98 49.0117 163.875 53.5508L162.207 51.2539C166.486 49.1348 169.029 46.6738 170.465 43.7344L162.781 44.4727L162.398 41.8477L171.395 41.2734C171.709 40.125 171.9 38.9082 171.996 37.6094H163.684V35.1484H175.031ZM181.539 32.7148V42.3945H185.203V44.8828H181.539V57.3789H178.504V32.7148H181.539ZM199.23 35.1484C199.23 42.6133 197.18 49.0117 188.074 53.5508L186.406 51.2539C190.686 49.1348 193.229 46.6738 194.664 43.7344L186.98 44.4727L186.598 41.8477L195.594 41.2734C195.908 40.125 196.1 38.9082 196.195 37.6094H187.883V35.1484H199.23ZM205.738 32.7148V42.3945H209.402V44.8828H205.738V57.3789H202.703V32.7148H205.738ZM221.816 34.1094C227.121 34.1094 231.031 36.7617 231.031 40.7812C231.031 44.4863 227.846 46.9609 223.32 47.3984V51.9375H233.164V54.4258H210.578V51.9375H220.312V47.3984C215.814 46.9609 212.629 44.4863 212.656 40.7812C212.629 36.7617 216.539 34.1094 221.816 34.1094ZM221.816 36.5703C218.207 36.543 215.609 38.1836 215.637 40.7812C215.609 43.4609 218.207 45.0469 221.816 45.0469C225.48 45.0469 228.051 43.4609 228.051 40.7812C228.051 38.1836 225.48 36.543 221.816 36.5703ZM257.363 52.0469V54.5625H234.777V52.0469H244.512V48.0273H237.457V39.9336H251.676V36.8711H237.402V34.4102H254.684V42.3398H240.492V45.5391H255.258V48.0273H247.52V52.0469H257.363ZM285.117 32.7148V39.8242H288.562V42.3672H285.117V50.543H282.027V32.7148H285.117ZM278.391 34.6016C278.391 41.1641 274.125 45.8398 266.797 47.9727L265.539 45.5664C271.186 43.9395 274.549 40.8633 275.082 37.0898H266.578V34.6016H278.391ZM286.047 54.4805V56.9414H269.23V48.7109H272.32V54.4805H286.047ZM310.52 32.7148V50.9805H307.484V44.5273H303.984V42.0117H307.484V39.6602H303.984V37.1992H307.484V32.7148H310.52ZM303.629 34.5742V37.0078H301.441V44.8828C302.371 44.8281 303.273 44.7598 304.148 44.6641L304.285 46.8789C299.609 47.6445 294.113 47.7266 290.176 47.7266L289.848 45.2109C290.709 45.2109 291.652 45.2109 292.637 45.1836V37.0078H290.477V34.5742H303.629ZM311.148 54.4805V56.9414H294.277V49.5586H297.34V54.4805H311.148ZM295.59 45.1562C296.547 45.1289 297.531 45.1016 298.516 45.0469V37.0078H295.59V45.1562ZM340.023 32.7148V42.3672H343.688V44.9102H340.023V57.3789H336.988V32.7148H340.023ZM333.488 35.2852C333.488 42.5586 330.48 48.9297 322.25 52.9766L320.527 50.625C326.543 47.6309 329.797 43.4199 330.426 37.8008H321.867V35.2852H333.488ZM365.453 32.7148V45.9766H362.391V32.7148H365.453ZM352.109 47.125V49.668H362.418V47.125H365.453V57.1328H349.102V47.125H352.109ZM352.109 54.6719H362.418V52.0469H352.109V54.6719ZM351.973 33.8086C355.773 33.7812 358.617 36.1602 358.617 39.6055C358.617 42.9688 355.773 45.3477 351.973 45.3477C348.145 45.3477 345.301 42.9688 345.301 39.6055C345.301 36.1602 348.145 33.7812 351.973 33.8086ZM351.973 36.3516C349.812 36.3516 348.254 37.6094 348.281 39.6055C348.254 41.5742 349.812 42.832 351.973 42.8594C354.105 42.832 355.637 41.5742 355.637 39.6055C355.637 37.6094 354.105 36.3516 351.973 36.3516ZM388.422 32.7148V42.5586H392.223V45.0742H388.422V57.4336H385.414V32.7148H388.422ZM383.5 36.5156V38.9492H368.926V36.5156H374.777V33.0703H377.812V36.5156H383.5ZM376.309 40.5625C379.863 40.5625 382.516 42.9688 382.516 46.3867C382.516 49.8047 379.863 52.1836 376.309 52.1836C372.699 52.1836 370.047 49.8047 370.074 46.3867C370.047 42.9688 372.699 40.5625 376.309 40.5625ZM376.309 43.0508C374.367 43.0508 372.973 44.3633 372.973 46.3867C372.973 48.4102 374.367 49.6953 376.309 49.668C378.195 49.6953 379.59 48.4102 379.617 46.3867C379.59 44.3633 378.195 43.0508 376.309 43.0508ZM413.906 32.7148V57.4336H410.844V32.7148H413.906ZM406.523 35.3398C406.523 42.6953 403.68 48.957 395.012 53.0586L393.426 50.625C399.893 47.5488 402.9 43.3652 403.434 37.7461H394.684V35.3398H406.523Z" fill="#424242"/>
<path d="M59 29.25C69.15 29.25 77.3768 35.662 77.3768 43.5738C77.3768 51.4838 69.15 57.8957 59.0018 57.8957C57.9913 57.8962 56.9818 57.8319 55.9795 57.7033L48.2655 62.7485C47.3888 63.2122 47.079 63.1615 47.4395 62.0257L49.0005 55.5893C43.9605 53.0343 40.6268 48.6068 40.6268 43.5738C40.6268 35.6638 48.8518 29.25 59.0018 29.25M69.3408 43.355L71.9133 40.863C72.0617 40.7088 72.1445 40.5031 72.1443 40.2891C72.144 40.0751 72.0607 39.8695 71.9119 39.7157C71.7631 39.5619 71.5604 39.4719 71.3465 39.4646C71.1326 39.4572 70.9242 39.5332 70.7653 39.6765L67.3913 42.942V40.2435C67.3913 40.0244 67.3042 39.8143 67.1493 39.6594C66.9944 39.5045 66.7843 39.4175 66.5653 39.4175C66.3462 39.4175 66.1361 39.5045 65.9812 39.6594C65.8263 39.8143 65.7393 40.0244 65.7393 40.2435V44.7182C65.7084 44.8459 65.7084 44.9791 65.7393 45.1067V47.625C65.7393 47.8441 65.8263 48.0542 65.9812 48.2091C66.1361 48.364 66.3462 48.451 66.5653 48.451C66.7843 48.451 66.9944 48.364 67.1493 48.2091C67.3042 48.0542 67.3913 47.8441 67.3913 47.625V45.2397L68.1385 44.517L70.6375 48.0747C70.6999 48.1636 70.7792 48.2392 70.8708 48.2974C70.9625 48.3556 71.0647 48.3952 71.1716 48.4139C71.2785 48.4325 71.3881 48.43 71.494 48.4063C71.6 48.3827 71.7002 48.3384 71.789 48.276C71.8778 48.2136 71.9535 48.1343 72.0117 48.0427C72.0699 47.9511 72.1094 47.8489 72.1281 47.7419C72.1468 47.635 72.1443 47.5254 72.1206 47.4195C72.097 47.3136 72.0527 47.2133 71.9903 47.1245L69.3408 43.355ZM64.1643 46.722H61.6093V40.2697C61.5995 40.0575 61.5083 39.8572 61.3546 39.7104C61.2009 39.5636 60.9966 39.4818 60.7841 39.4818C60.5717 39.4818 60.3673 39.5636 60.2137 39.7104C60.06 39.8572 59.9688 40.0575 59.959 40.2697V47.548C59.959 48.003 60.3265 48.374 60.7833 48.374H64.1643C64.3833 48.374 64.5934 48.287 64.7483 48.1321C64.9032 47.9772 64.9903 47.7671 64.9903 47.548C64.9903 47.3289 64.9032 47.1188 64.7483 46.9639C64.5934 46.809 64.3833 46.722 64.1643 46.722ZM53.9145 44.8127L55.1325 41.8238L56.249 44.811L53.9145 44.8127ZM58.3298 45.665L58.3333 45.637C58.3329 45.4289 58.2534 45.2287 58.111 45.077L56.2805 40.177C56.2038 39.9435 56.0576 39.739 55.8616 39.5907C55.6655 39.4425 55.4289 39.3577 55.1833 39.3475C54.9359 39.3464 54.694 39.4207 54.4899 39.5604C54.2858 39.7002 54.129 39.8987 54.0405 40.1298L51.132 47.261C51.0492 47.4638 51.0503 47.6913 51.1351 47.8933C51.22 48.0953 51.3816 48.2553 51.5844 48.3381C51.7872 48.421 52.0146 48.4199 52.2166 48.335C52.4186 48.2502 52.5787 48.0886 52.6615 47.8857L53.2425 46.463H56.865L57.3865 47.863C57.4221 47.9676 57.4783 48.0641 57.5518 48.1466C57.6254 48.2291 57.7147 48.2961 57.8146 48.3434C57.9144 48.3908 58.0228 48.4177 58.1332 48.4224C58.2436 48.4271 58.3539 48.4096 58.4574 48.371C58.561 48.3323 58.6557 48.2733 58.736 48.1973C58.8164 48.1214 58.8806 48.0301 58.925 47.9289C58.9694 47.8277 58.993 47.7186 58.9945 47.6081C58.996 47.4975 58.9752 47.3879 58.9335 47.2855L58.3298 45.665ZM52.5145 40.2785C52.5145 40.0597 52.4277 39.8499 52.2732 39.695C52.1187 39.5402 51.909 39.453 51.6903 39.4525H46.0115C45.7925 39.4525 45.5824 39.5395 45.4274 39.6944C45.2725 39.8493 45.1855 40.0594 45.1855 40.2785C45.1855 40.4976 45.2725 40.7077 45.4274 40.8626C45.5824 41.0175 45.7925 41.1045 46.0115 41.1045H48.0415V47.6425C48.0415 47.8616 48.1285 48.0717 48.2834 48.2266C48.4384 48.3815 48.6485 48.4685 48.8675 48.4685C49.0866 48.4685 49.2967 48.3815 49.4516 48.2266C49.6065 48.0717 49.6935 47.8616 49.6935 47.6425V41.1045H51.6885C51.9076 41.1045 52.1177 41.0175 52.2726 40.8626C52.4275 40.7077 52.5145 40.4976 52.5145 40.2785Z" fill="black"/>
</svg>
