<svg width="28" height="25" viewBox="0 0 28 25" fill="none" xmlns="http://www.w3.org/2000/svg">
<path d="M28 9.39397C28.0006 9.00479 27.9005 8.62239 27.71 8.28566C27.5194 7.94892 27.2452 7.66986 26.9151 7.47685L15.1217 0.310053C14.7818 0.106997 14.3954 0 14.0019 0C13.6084 0 13.2219 0.106997 12.882 0.310053L1.07109 7.47685C0.744708 7.67516 0.474335 7.95701 0.286542 8.29471C0.0987491 8.6324 0 9.01432 0 9.40293C0 9.79154 0.0987491 10.1735 0.286542 10.5112C0.474335 10.8489 0.744708 11.1307 1.07109 11.329L4.43064 13.3357V18.3704C4.43266 18.7639 4.53352 19.1502 4.72351 19.4922C4.9135 19.8342 5.18624 20.1205 5.5155 20.3233L12.952 24.713C13.284 24.9012 13.6573 25 14.0369 25C14.4164 25 14.7897 24.9012 15.1217 24.713L22.5582 20.3233C22.8875 20.1205 23.1602 19.8342 23.3502 19.4922C23.5402 19.1502 23.6411 18.7639 23.6431 18.3704V13.282L25.8128 11.974V16.8474H28V9.39397ZM21.4734 18.3525L14.0019 22.7601L6.61785 18.3704V14.6616L12.882 18.4779C13.2231 18.6774 13.6091 18.7824 14.0019 18.7824C14.3947 18.7824 14.7807 18.6774 15.1217 18.4779L21.4559 14.6078L21.4734 18.3525ZM14.0019 16.5429L2.19094 9.37605L14.0019 2.19134L25.8128 9.35814L14.0019 16.5429Z" fill="white"/>
</svg>
