<svg width="331" height="366" viewBox="0 0 331 366" fill="none" xmlns="http://www.w3.org/2000/svg">
<g filter="url(#filter0_d_861_1771)">
<path fill-rule="evenodd" clip-rule="evenodd" d="M77.4951 292.706C104.266 311.134 136 321 168.5 321L178 283L175.88 274.107L238.455 349.073C245.969 358.075 259.359 359.281 268.361 351.767C277.363 344.253 278.569 330.863 271.055 321.861L247.015 293.06L252.636 288.202C260.801 281.145 268.046 272.913 273.949 263.831C279.84 254.769 284.513 244.672 287.302 233.922C290.087 223.187 291.059 211.499 289.154 199.68C288.574 196.082 287.73 192.505 286.61 188.987L288.5 190.005L328.02 178.21C331.606 145.909 325.301 113.28 309.94 84.639C294.579 55.9985 270.885 32.6962 241.992 17.8146C213.099 2.93303 180.37 -2.82656 148.132 1.29772C115.895 5.422 85.6695 19.2358 61.4538 40.9118C37.2381 62.5878 20.1735 91.1046 12.5172 122.69C4.86096 154.275 6.97386 187.441 18.5764 217.799C30.179 248.157 50.7245 274.278 77.4951 292.706ZM250.053 147.1C247.999 146.126 245.901 145.252 243.769 144.477C232.283 140.304 220.411 139.22 209.226 140.22C198.043 141.22 187.274 144.314 177.413 148.794C167.528 153.286 158.325 159.272 150.161 166.327L144.972 170.812L144.948 170.783L112.348 197.995L147.849 240.525C138.531 238.121 129.653 234.094 121.638 228.577C107.853 219.088 97.2737 205.638 91.2991 190.005C85.3245 174.373 84.2365 157.295 88.179 141.03C92.1215 124.766 100.909 110.082 113.378 98.9199C125.848 87.7582 141.412 80.645 158.012 78.5212C174.612 76.3975 191.466 79.3633 206.344 87.0263C221.221 94.6894 233.422 106.689 241.332 121.437C245.656 129.498 248.587 138.174 250.053 147.1ZM177.93 198.455C179.031 197.503 180.156 196.587 181.303 195.707C185.613 192.401 190.227 189.615 194.98 187.455C200.999 184.72 207.125 183.042 213.008 182.516C215.279 182.313 217.496 182.283 219.642 182.424C223.056 182.649 226.289 183.307 229.268 184.389C234.12 186.152 238.203 189.007 241.285 192.79C244.367 196.573 246.388 201.211 247.23 206.439C247.748 209.649 247.815 213.043 247.438 216.545C247.2 218.746 246.786 220.991 246.198 223.259C244.673 229.135 242.005 235.058 238.345 240.689C234.685 246.319 230.106 251.547 224.868 256.074L201.399 227.265L198.021 223.119L177.93 198.455ZM118.004 59.325C118.605 61.7218 117.156 64.1456 114.767 64.7386C88.345 71.2984 72.4104 88.4556 63.6175 107.442C54.7506 126.588 53.2808 147.349 55.7363 160.3C56.1965 162.727 54.608 165.061 52.1881 165.513C49.7683 165.964 47.4335 164.362 46.9732 161.935C44.1611 147.103 45.8924 124.447 55.5239 103.65C65.2294 82.6934 83.0904 63.3827 112.59 56.0589C114.978 55.4659 117.402 56.9282 118.004 59.325ZM54.4031 185.612C56.5136 185.612 58.2245 183.901 58.2245 181.791C58.2245 179.68 56.5136 177.969 54.4031 177.969C52.2925 177.969 50.5816 179.68 50.5816 181.791C50.5816 183.901 52.2925 185.612 54.4031 185.612Z" fill="url(#paint0_linear_861_1771)"/>
</g>
<defs>
<filter id="filter0_d_861_1771" x="0.357143" y="0" width="329.735" height="365.435" filterUnits="userSpaceOnUse" color-interpolation-filters="sRGB">
<feFlood flood-opacity="0" result="BackgroundImageFix"/>
<feColorMatrix in="SourceAlpha" type="matrix" values="0 0 0 0 0 0 0 0 0 0 0 0 0 0 0 0 0 0 127 0" result="hardAlpha"/>
<feOffset dx="-3.27551" dy="4.36735"/>
<feGaussianBlur stdDeviation="2.18367"/>
<feComposite in2="hardAlpha" operator="out"/>
<feColorMatrix type="matrix" values="0 0 0 0 0 0 0 0 0 0 0 0 0 0 0 0 0 0 0.2 0"/>
<feBlend mode="normal" in2="BackgroundImageFix" result="effect1_dropShadow_861_1771"/>
<feBlend mode="normal" in="SourceGraphic" in2="effect1_dropShadow_861_1771" result="shape"/>
</filter>
<linearGradient id="paint0_linear_861_1771" x1="32.9457" y1="72.6754" x2="263.608" y2="369.58" gradientUnits="userSpaceOnUse">
<stop stop-color="#EF9D43"/>
<stop offset="1" stop-color="#E75516"/>
</linearGradient>
</defs>
</svg>
